<?xml version="1.0" encoding="UTF-8" standalone="no"?>
<!-- Created with Inkscape (http://www.inkscape.org/) -->

<svg
   xmlns:dc="http://purl.org/dc/elements/1.1/"
   xmlns:cc="http://creativecommons.org/ns#"
   xmlns:rdf="http://www.w3.org/1999/02/22-rdf-syntax-ns#"
   xmlns:svg="http://www.w3.org/2000/svg"
   xmlns="http://www.w3.org/2000/svg"
   xmlns:sodipodi="http://sodipodi.sourceforge.net/DTD/sodipodi-0.dtd"
   xmlns:inkscape="http://www.inkscape.org/namespaces/inkscape"
   width="316.55933"
   height="432.07089"
   id="svg2"
   version="1.1"
   inkscape:version="0.48.1 "
   sodipodi:docname="Federata_Shqiptare_e_Futbollit.svg">
  <defs
     id="defs4" />
  <sodipodi:namedview
     id="base"
     pagecolor="#ffffff"
     bordercolor="#666666"
     borderopacity="1.0"
     inkscape:pageopacity="0.0"
     inkscape:pageshadow="2"
     inkscape:zoom="1"
     inkscape:cx="175.18659"
     inkscape:cy="243.79805"
     inkscape:document-units="px"
     inkscape:current-layer="layer1"
     showgrid="false"
     fit-margin-top="0"
     fit-margin-left="0"
     fit-margin-right="0"
     fit-margin-bottom="0"
     inkscape:window-width="1366"
     inkscape:window-height="706"
     inkscape:window-x="-8"
     inkscape:window-y="-8"
     inkscape:window-maximized="1" />
  <metadata
     id="metadata7">
    <rdf:RDF>
      <cc:Work
         rdf:about="">
        <dc:format>image/svg+xml</dc:format>
        <dc:type
           rdf:resource="http://purl.org/dc/dcmitype/StillImage" />
        <dc:title />
      </cc:Work>
    </rdf:RDF>
  </metadata>
  <g
     inkscape:label="Layer 1"
     inkscape:groupmode="layer"
     id="layer1"
     transform="translate(-9.53127,-613.61031)">
    <g
       id="g3056"
       transform="translate(-342.85073,198.05494)">
      <path
         id="path2993"
         d="m 668.94132,669.75223 c 0,128.51575 -158.31477,177.87402 -158.31477,177.87402 0,0 -158.24455,-49.35827 -158.24455,-177.87402 l 0,-254.19686 316.55932,0 z"
         style="fill:#ffffff;fill-opacity:1;fill-rule:nonzero;stroke:none"
         inkscape:connector-curvature="0"
         sodipodi:nodetypes="cccccc" />
      <path
         id="path2995"
         d="m 652.46432,664.61443 c 0,118.52363 -141.90864,164.05512 -141.90864,164.05512 0,0 -141.69685,-45.53149 -141.69685,-164.05512 l 0,-234.35433 283.60549,0 z"
         style="fill:#d63233;fill-opacity:1;fill-rule:nonzero;stroke:none"
         inkscape:connector-curvature="0"
         sodipodi:nodetypes="cccccc" />
      <path
         id="path2997"
         d="m 571.0045,553.10655 0,0 -0.0354,-0.0354"
         style="fill:#df3c78;fill-opacity:1;fill-rule:nonzero;stroke:none"
         inkscape:connector-curvature="0" />
      <path
         id="path2999"
         d="m 368.85883,441.17348 0,0.2126 c 28.62992,31.78347 89.11418,101.40945 119.33858,135.49607 -3.22441,0.70866 -6.34252,1.52362 -9.28346,2.44488 -35.64567,-38.12599 -79.29921,-83.72835 -110.05512,-114.27166 l 0,1.59449 c 28.48819,31.99606 73.59449,83.83465 101.65748,115.61811 -2.12598,0.8504 -4.14567,1.77166 -6.02362,2.65748 -32.95275,-33.27165 -69.16535,-68.70472 -95.63386,-94.42913 l 0,2.05512 c 23.49213,27.03543 57.54331,67.92519 84.29528,99.38976 -0.24803,0.2126 -0.49607,0.4252 -0.70866,0.60236 0.24803,-0.17716 0.53149,-0.31889 0.77952,-0.49606 1.70079,2.01968 3.54331,4.1811 5.17323,6.09449 0.81496,2.76378 -2.72834,4.0748 -5.35039,1.45275 -29.05512,-29.23228 -60.05906,-59.52756 -84.18898,-83.01968 l 0,2.90551 c 21.79134,25.22835 50.77559,59.98819 74.94095,88.47638 0.70866,2.40945 -1.55906,3.72047 -3.89764,2.26772 -24.27165,-24.34252 -49.53543,-49.14567 -71.04331,-70.12205 l 0,4.85433 c 19.27559,22.57086 42.09449,49.88976 62.07874,73.48819 0.1063,0.2126 0.2126,0.38976 0.24803,0.53149 0.88583,2.69292 -2.40944,4.07481 -5.03149,2.05512 -0.17717,-0.14173 -0.3189,-0.3189 -0.49607,-0.49606 -18.35433,-18.77953 -38.01968,-38.76378 -56.79921,-57.72047 l 0,11.65748 c 16.61811,19.16929 33.44882,38.51575 48.64961,55.94882 0.0354,0.0354 0.0709,0.1063 0.0709,0.14173 0.28346,0.35433 0.56693,0.77953 0.74409,1.13386 1.13386,2.69291 -2.33858,5.06693 -5.20866,2.94094 -14.10236,-13.85433 -29.55118,-28.87795 -44.25591,-43.22835 l 0,8.11418 c 10.27559,12.22441 20.83465,24.90945 31.00394,37.09842 -0.77953,2.44489 -1.48819,4.88977 -2.12598,7.37008 -9.67323,-9.42519 -19.38189,-18.77953 -28.87796,-27.92126 l 0,8.85827 c 8.78741,10.80709 17.68111,21.86221 26.29134,32.42126 -0.38976,2.94095 -0.74409,5.84646 -0.95669,8.71654 -8.43307,-7.75985 -16.90158,-15.41339 -25.33465,-23.10237 l 0,9.17717 c 8.29134,10.52362 16.54725,21.04724 25.05118,31.32283 0.0709,2.01969 0.17717,4.00394 0.35433,5.91733 -6.62598,-7.44095 -13.14566,-14.52756 -16.58267,-17.75197 -2.94095,-2.79921 -5.88189,-5.56299 -8.82284,-8.32677 l 0,1.34645 c 0,3.72048 0.16518,7.33465 0.41321,10.91339 9.63779,10.87795 19.03955,21.54331 27.40175,30.75591 0.77953,3.68504 1.66536,7.05118 2.62205,10.06299 -9.85039,-9.95669 -19.39141,-19.59449 -28.67487,-29.30315 0.0709,0.53149 0.1597,1.06299 0.266,1.59449 15.51968,18.85039 35.03485,44.32677 49.59785,59.81102 17.07874,29.58662 47.94094,52.05118 83.79921,53.50394 66.6496,2.69291 106.65354,-52.26378 109.20472,-89.7874 2.58661,-37.52363 -6.05906,-67.88977 -30.22441,-88.61812 -15.34252,-13.14567 -23.88189,-19.62992 -43.65354,-26.7874 -2.01969,-2.33858 -4.07481,-4.7126 -6.12992,-6.98031 -4.25197,-4.7126 -7.97244,-8.78741 -11.55118,-12.68504 l 5.66929,-1.84252 c -2.72835,-0.46063 -5.49213,-0.77953 -8.22047,-0.9567 -27.4252,-29.83464 -36.9567,-38.30315 -72.6378,-72.85039 29.26772,32.38583 23.20866,31.0748 52.22835,63.6378 2.76378,3.08267 5.31496,6.09448 7.97244,9.14173 -2.97638,0.17716 -5.91733,0.42519 -8.82284,0.81496 C 457.12261,531.03175 401.84702,473.24041 368.85883,441.17348 z m 135.5315,135.17717 c 1.48819,0 2.97637,0.0354 4.5,0.1063 2.79921,3.22441 5.77559,6.51968 9.28346,10.13386 -0.81496,2.16141 -5.98819,1.84252 -9,0.38976 -3.04724,-3.29528 -6.41338,-6.90945 -9.67323,-10.41732 1.62992,-0.1063 3.25985,-0.17717 4.88977,-0.2126 z m -15.37796,1.45276 c 1.063,1.20472 2.44489,2.76377 3.43701,3.8622 1.34646,1.52362 2.79921,3.18898 4.21654,4.78346 0.31889,2.37402 -5.95276,3.57874 -9.2126,2.05512 -2.55118,-2.76378 -5.27953,-5.70472 -7.93701,-8.53937 3.08268,-0.88582 6.27165,-1.59449 9.49606,-2.16141 z m -18,5.03149 c 2.09056,2.37402 4.42914,4.99606 6.30709,7.12205 0.95669,2.83464 -3.61417,4.21653 -6.27165,1.55905 -1.98425,-2.01968 -4.07481,-4.0748 -6.09449,-6.12992 1.98425,-0.92126 4.00394,-1.77165 6.05905,-2.55118 z m -68.20866,57.29528 c 2.94095,3.47244 5.88189,6.98031 8.68111,10.31102 0.70866,2.26772 -0.6378,4.3937 -2.83465,3.61418 -0.56693,-0.2126 -1.27559,-0.77953 -1.66535,-1.09843 -2.12599,-2.05512 -4.25197,-4.14567 -6.37796,-6.20079 0.67323,-2.16141 1.41733,-4.2874 2.23229,-6.37795 z m -5.59842,19.80709 c 3.25984,4.00393 6.48425,7.90157 9.63779,11.69291 0.81497,2.26772 -0.46063,4.42913 -2.58661,3.82677 -2.76378,-2.58661 -5.52756,-5.17323 -8.29134,-7.75984 0.3189,-2.58662 0.7441,-5.17323 1.24016,-7.75984 z m -2.12598,24.94488 c 3.3307,4.00393 6.66141,8.07874 10.06299,12.08267 0.60236,1.09843 0.49606,1.91339 -0.4252,2.44489 -0.63779,0.38976 -1.27559,0.28346 -1.94882,-0.2126 -2.33858,-2.76378 -4.88976,-5.70473 -7.44094,-8.5748 -0.1063,-1.91339 -0.2126,-3.82678 -0.24803,-5.74016 z m 2.69291,22.64173 c 3.25984,3.57874 6.37795,7.01575 9.2126,10.06299 2.05512,2.05512 3.40157,3.50788 4.25197,4.6063 0.49606,1.09843 0.10629,1.98425 -0.70867,2.65748 -0.67322,0.56693 -1.77165,0.67323 -2.87007,-0.1063 -2.44489,-2.48031 -4.8189,-4.85433 -7.22835,-7.29921 -1.02756,-3.25984 -1.91339,-6.55512 -2.65748,-9.92126 z"
         style="fill:#000000;fill-opacity:1;fill-rule:evenodd;stroke:none"
         inkscape:connector-curvature="0"
         sodipodi:nodetypes="cccccccccccccccccccccccccccccccccccccccccccccsccccccccccccccccccccccccccccccccccccccccccccccccccccccccccccc" />
      <path
         id="path3001"
         d="m 608.17379,579.64592 c 0,0 28.80708,26.53938 41.84645,36.56693 -10.66535,-14.59842 -36.21259,-43.86614 -36.21259,-43.86614 0,0 -5.91733,-1.87795 -8.68111,-2.51575 0.7441,3.50788 3.04725,9.81496 3.04725,9.81496 m -68.42126,-6.16535 c 13.03937,14.63386 24.66142,28.06299 24.66142,28.06299 0,0 7.19291,1.94882 10.55905,2.58662 -0.92126,-3.54331 -3.72047,-9.8504 -3.72047,-9.8504 0,0 -15.62598,-10.73622 -31.5,-20.79921 m 65.40945,-4.11024 c -0.7441,-3.5433 -3.01181,-9.81496 -3.01181,-9.81496 0,0 -28.84252,-26.5748 -41.88189,-36.56693 10.66535,14.59843 36.2126,43.86615 36.2126,43.86615 0,0 5.91732,1.87795 8.6811,2.51574 m -24.30712,15.87402 c -3.22441,-2.87008 -30.47244,-26.92913 -43.15748,-36.28347 10.59449,13.9252 34.83071,40.85434 37.73622,44.04331 l 0.35434,0.35433 c 3.22441,2.83465 30.47244,26.92914 43.15748,36.24804 -10.59449,-13.88977 -34.83071,-40.8189 -37.73622,-44.04331 z m 6.23623,-19.16925 c -6.12992,-5.42126 -43.72441,-38.58662 -61.47637,-51.66142 14.70472,19.34646 47.83464,56.19685 53.64566,62.64567 l 0.95676,1.02753 c 6.12992,5.42126 43.75984,38.58661 61.47637,51.62599 -14.70472,-19.31103 -47.79921,-56.16142 -53.64567,-62.64568 z"
         style="fill:#000000;fill-opacity:1;fill-rule:evenodd;stroke:none"
         inkscape:connector-curvature="0"
         sodipodi:nodetypes="ccccccccccccccccccccccccccccc" />
      <path
         id="path3003"
         d="m 515.02025,720.03175 c 14.35039,19.41733 28.13385,38.05512 34.83071,47.48032 -8.64567,-9.17716 -24.73229,-27.38976 -41.49213,-46.34646 1.94882,-0.31889 4.21654,-0.70866 6.66142,-1.13386 z m 17.64567,-3.40157 c 16.72441,22.64173 31.35826,42.16535 31.35826,42.16535 -0.35433,-0.17716 -17.1496,-19.09842 -36.81496,-41.06693 1.87796,-0.38976 3.82678,-0.77952 5.4567,-1.09842 z M 413.00844,696.2916 c 0.67323,0.24803 1.34646,0.53149 1.34646,0.53149 0,0 25.22834,35.39764 34.37007,50.98819 -8.00787,-7.54724 -24.05905,-25.54724 -33.16535,-35.75197 -1.24016,-5.20866 -2.12598,-10.52362 -2.55118,-15.76771 z m 19.27559,-1.59449 c 17.82283,22.74803 41.74016,51.66142 52.79527,67.21654 L 429.02419,704.2286 c 0.24803,-2.01968 0.53149,-4.2874 1.52362,-5.52755 l 0.28346,-0.77953 c -0.38976,-0.6378 0.17717,-0.46063 0.4252,-0.7441 0.28347,-0.46063 -0.17717,-0.42519 -0.2126,-0.67322 0.8504,-0.0354 0.2126,-1.1693 0.77953,-0.70867 -0.14173,-0.53149 -0.14173,-0.95669 0.46063,-1.09842 z m 6.66142,-20.90551 c 18.99212,27.24803 59.45669,79.86614 74.62204,101.12598 -15.51968,-16.40551 -53.75197,-58.25197 -79.47637,-85.21653 0.67322,-1.48819 1.70078,-2.76378 2.09055,-4.5 0.81496,0.21259 1.45275,-3.33071 2.30315,-3.22441 0.42519,-1.20473 0.21259,-2.33859 0.21259,-3.72048 0,-1.45275 0.24804,-3.11811 0.24804,-4.46456 z m 143.1496,-28.87796 c 0.14173,0.0354 0.2126,0.0354 0.3189,0.0709 -0.1063,4.5 0.0709,9.17716 0.21259,13.7126 -0.31889,-0.35433 -0.60236,-0.70866 -0.92126,-1.06299 0.35434,-4.39371 0.49607,-8.64567 0.38977,-12.72048 z m -54.07087,-20.37401 c 7.29922,11.90551 31.2874,45.46063 48.75591,69.66142 2.16142,-4.46457 3.93307,-9.07087 5.35039,-13.74804 -18.07086,-19.31102 -44.29134,-47.01968 -54.1063,-55.91338 z m -11.37401,-29.44489 c 4.8189,0.0709 9.56693,0.5315 14.24409,1.38189 18.5315,3.29528 36.99213,15.16536 49.88977,28.09843 0,1.06299 0.85039,2.30315 0,2.94094 -0.24804,-0.0354 -0.46063,-0.0709 -0.67323,-0.10629 -0.24803,-1.09843 -0.46063,-2.16142 -0.7441,-3.18898 0,0 -0.3189,-0.14173 -0.60236,-0.24803 -0.88583,-0.35433 -2.23228,-0.0709 -3.75591,-0.1063 l -1.62992,0.0709 -2.23228,-0.17716 c 0.0354,0.38976 0.1063,0.77953 0.2126,1.16929 -4.53543,-3.72047 -9.5315,-7.72441 -14.77559,-11.87008 7.79527,10.77166 13.64173,19.06299 17.50393,24.44882 0.0709,0.38976 0.17717,0.7441 0.28347,1.09843 0.1063,0.31889 0.1063,1.55905 0.17716,2.16141 0.14174,1.34646 0.70867,2.58662 0.88583,3.89764 0.2126,2.12599 0.3189,4.32284 0.46063,6.66142 -13.74803,-14.98819 -25.86614,-28.62992 -36.95669,-38.65748 7.19291,11.76378 28.73622,42.05905 44.32677,63.74409 0.17717,0.2126 0.35433,0.46063 0.5315,0.70866 9.56692,13.28741 16.79527,23.20867 16.79527,23.20867 0,0 -7.58268,-8.22048 -17.85827,-19.24016 -1.34645,4.6063 -3.04724,9.4252 -5.13779,14.27953 10.59449,14.66929 18.60236,25.61811 18.60236,25.61811 0,0 -8.64567,-9.4252 -20.26772,-22.00394 -2.01968,4.2874 -4.35826,8.53937 -7.01574,12.64961 10.94882,14.95275 19.41732,26.39763 19.41732,26.39763 0,0 -9.17717,-10.20472 -21.25984,-23.59842 -2.40945,3.47244 -5.06693,6.80315 -7.97244,9.95669 10.06299,13.5 17.5748,23.49213 17.5748,23.49213 0,0 -16.22835,-17.82284 -35.14961,-38.30315 0.14174,-2.48032 0.8504,-5.31496 0.92126,-7.54725 5.98819,8.04331 11.51575,15.44882 16.58268,22.28741 l 1.94882,-6.98032 c 1.48819,-1.59449 2.87008,-3.22441 4.21653,-4.9252 -6.55511,-7.22834 -13.60629,-15.05905 -21.08267,-23.24409 0.14173,-2.16142 0.46063,-4.9252 0.35433,-4.96063 0.4252,-0.35433 0.53149,-0.92126 0.17716,-0.95669 0.46063,-0.35433 0.28347,-0.35433 0.0709,-0.46063 0.24803,-0.88583 0.49606,-2.19685 0.6378,-3.61418 7.61811,10.59449 15.16535,20.97638 22.0748,30.40158 2.79921,-3.75591 5.31496,-7.65355 7.47638,-11.72835 -20.79922,-22.46457 -50.77559,-54.49606 -60.76772,-63.5315 4.35827,7.08662 14.84646,22.00394 26.4685,38.23229 -1.91338,-0.95669 -3.5433,-1.70079 -3.68504,-1.70079 0.35434,-0.53149 -11.30314,-6.27165 -12.40157,-6.05905 0,-0.17717 -0.85039,-0.88583 -1.84252,-0.88583 0,-0.0709 -1.41732,-0.60236 -3.11811,-1.24016 -8.4685,-9.03543 -15.62598,-16.37008 -19.59449,-19.94882 2.12599,3.47244 6.23622,9.35433 11.40945,16.68898 -0.2126,-0.28347 -0.81496,-0.4252 -1.13386,-0.17717 0,-0.21259 0.0709,-0.46063 -0.1063,-0.53149 -0.21259,0.42519 -0.53149,-0.24803 -0.77952,-0.28347 -2.83465,2.69292 -5.52756,5.3504 -8.14961,7.93701 -7.40551,-7.72441 -13.42913,-13.85433 -16.58268,-16.68898 2.33859,3.79134 7.29922,10.94882 13.57087,19.73623 -2.69291,2.72834 -5.17323,5.20866 -7.61811,7.75984 -11.48032,-12.54331 -21.11811,-22.74803 -25.54724,-26.75197 3.437,5.63386 11.69291,17.2559 21.57874,30.8622 -0.0354,0.0354 -0.0709,0.1063 -0.14174,0.14174 -0.60236,1.48819 -2.69291,2.48031 -3.36614,3.8622 0.0354,-0.1063 0.0354,-0.17716 -0.1063,-0.17716 0.0709,1.45275 3.54331,8.39763 7.44095,15.83858 -18.60236,-20.94095 -35.92914,-40.11024 -43.54725,-47.01969 11.26772,18.38977 69.41339,95.20867 86.17323,118.77166 -19.34646,-20.44488 -73.38189,-81.81496 -95.74015,-104.38583 -0.38977,-1.77165 -0.67323,-3.47244 -1.38189,-4.85433 -0.49607,-4.1811 -2.48032,-9.77953 -2.09056,-15.16536 -0.63779,-0.14173 -0.56692,0.46063 -0.74409,0.5315 0,-0.17716 -0.17716,-0.4252 -0.28346,-0.17716 -1.27559,0.92126 -3.33071,1.98425 -5.20867,2.30314 -2.19685,1.59449 -4.32283,3.36615 -6.09448,4.6063 -0.88583,0.99213 -1.84252,2.33859 -2.94095,3.57874 10.59449,-27.28346 33.51969,-47.30315 59.63386,-57.18897 -1.38189,1.27559 -1.94882,3.5433 -3.01181,4.64173 0.0709,1.45276 -1.59449,2.69291 -1.20473,3.7559 0.35433,0 1.06299,-0.24803 1.27559,0.0354 0,0.17716 -0.24803,0.2126 -0.0354,0.3189 0.38976,0.0709 1.77165,-0.14174 1.70079,0.42519 1.31102,-0.3189 2.79921,0.77953 3.72047,0.2126 0.77953,0.7441 2.05512,0.4252 3.15354,0.67323 0.2126,0.0354 1.31103,0.81496 1.87796,0.46063 0.77952,0.60236 1.94881,0.74409 3.15354,0.77953 -0.0354,0.17716 -0.28347,0.24803 -0.0709,0.35433 1.45276,-0.1063 3.47244,1.09842 4.9252,0.74409 0,0.49606 1.31102,0.77953 2.05512,0.77953 0.1063,0.74409 2.40945,0.46063 3.47244,1.52362 0.0709,-0.17716 0.1063,-0.35433 0.35433,-0.24803 0.38976,0.60236 2.87008,1.45276 3.40157,1.16929 0.38977,0.38977 1.41733,1.02756 2.01969,0.77953 0.3189,0 1.48819,-0.7441 2.48031,-1.41732 6.90945,-4.53544 15.05906,-9.7441 22.2874,-12.72048 -0.17716,-0.0354 -0.0354,-0.2126 0.0709,-0.31889 -4.57087,-2.79922 -5.63386,-4.9252 -10.80709,-7.22835 0.3189,-0.2126 -0.0354,-0.4252 -0.24803,-0.49606 -0.49606,-0.24804 -1.27559,-0.67323 -2.12598,-1.063 z"
         style="fill:#ffffff;fill-opacity:1;fill-rule:evenodd;stroke:none"
         inkscape:connector-curvature="0"
         sodipodi:nodetypes="cccccccccccccccccccccccccccscccccccccccccccccccccccccccccccccccccccccccccccccccccccccccccccccccccccccccccccccccccccccccccccccccccccccccc" />
      <path
         id="path3005"
         d="m 402.27222,533.15773 3.25984,0 0,27.1063 -4.64173,0 0,-22.32283 -4.78347,1.34646 -0.99212,-3.82678"
         style="fill:#ffffff;fill-opacity:1;fill-rule:nonzero;stroke:none"
         inkscape:connector-curvature="0" />
      <path
         id="path3007"
         d="m 421.54781,536.94907 c -3.29528,0 -5.27953,2.23229 -5.27953,5.0315 0,2.83465 2.12599,4.85433 5.45669,4.85433 3.36615,0 5.38583,-2.23228 5.38583,-4.88976 0,-2.83465 -2.16142,-4.99607 -5.56299,-4.99607 m -0.81496,23.77559 c -3.68504,0 -6.27166,-1.34645 -8.53937,-3.25984 l 2.55118,-3.61417 c 2.01968,1.73622 3.82677,2.55118 6.09449,2.55118 3.89764,0 6.27165,-3.50787 6.41338,-8.4685 -1.31102,1.62992 -3.36614,2.87007 -6.23622,2.87007 -5.66929,0 -9.42519,-3.36614 -9.42519,-8.5748 0,-5.31496 4.03937,-9.35433 9.92126,-9.35433 3.36614,0 5.52755,0.95669 7.37007,2.83465 1.98426,2.01968 3.25985,4.96063 3.25985,10.31102 0,8.6811 -4.2874,14.70472 -11.40945,14.70472"
         style="fill:#ffffff;fill-opacity:1;fill-rule:nonzero;stroke:none"
         inkscape:connector-curvature="0" />
      <path
         id="path3009"
         d="m 436.6423,537.44514 0,-4.11024 17.61023,0 0,3.54331 -7.40551,7.68897 c 4.03937,0.5315 7.83071,2.58662 7.83071,7.61811 0,4.99607 -3.82677,8.53937 -9.3189,8.53937 -4.64173,0 -7.93701,-1.98425 -10.20472,-4.74803 l 3.25984,-3.08267 c 1.91339,2.26771 4.03937,3.5433 7.01575,3.5433 2.62205,0 4.6063,-1.59449 4.6063,-4.11023 0,-2.69292 -2.37402,-4.18111 -6.12992,-4.18111 l -2.16142,0 -0.77953,-2.97637 7.19291,-7.72441"
         style="fill:#ffffff;fill-opacity:1;fill-rule:nonzero;stroke:none"
         inkscape:connector-curvature="0" />
      <path
         id="path3011"
         d="m 470.69348,537.12624 c -4.14567,0 -6.73229,4.25197 -6.73229,9.63779 0,5.38583 2.65748,9.67323 6.80315,9.67323 4.14567,0 6.73229,-4.25197 6.73229,-9.60236 0,-5.35039 -2.65748,-9.70866 -6.80315,-9.70866 m 0,23.59842 c -6.98032,0 -11.55118,-6.16535 -11.55118,-13.88976 0,-7.72441 4.64173,-13.96063 11.62204,-13.96063 7.01575,0 11.55118,6.16535 11.55118,13.88976 0,7.72441 -4.6063,13.96063 -11.62204,13.96063"
         style="fill:#ffffff;fill-opacity:1;fill-rule:nonzero;stroke:none"
         inkscape:connector-curvature="0" />
      <path
         id="path3013"
         d="m 477.42576,522.38608 c -9.77953,0 -19.62992,-3.40157 -27.35433,-10.31102 l 8.3622,-10.063 c 5.81103,4.78347 11.90552,7.83071 19.24016,7.83071 5.81103,0 9.3189,-2.30315 9.3189,-6.05905 l 0,-0.17717 c 0,-3.61417 -2.19685,-5.45669 -12.9685,-8.22047 -13.00394,-3.29527 -21.40158,-6.90945 -21.40158,-19.70079 l 0,-0.17716 c 0,-11.69292 9.4252,-19.45276 22.57087,-19.45276 9.38976,0 17.43307,2.94095 23.95275,8.18504 l -7.37008,10.70079 c -5.70472,-3.96851 -11.33858,-6.34252 -16.75984,-6.34252 -5.42126,0 -8.29134,2.48031 -8.29134,5.59842 l 0,0.17717 c 0,4.25197 2.76378,5.63386 13.9252,8.50394 13.0748,3.40157 20.44488,8.07874 20.44488,19.34645 l 0,0.17717 c 0,12.79134 -9.77953,19.98425 -23.66929,19.98425"
         style="fill:#ffffff;fill-opacity:1;fill-rule:nonzero;stroke:none"
         inkscape:connector-curvature="0" />
      <path
         id="path3015"
         d="m 551.48088,521.46482 0,-25.90157 -26.18504,0 0,25.90157 -14.17323,0 0,-64.48819 14.17323,0 0,25.51181 26.18504,0 0,-25.51181 14.17322,0 0,64.48819"
         style="fill:#ffffff;fill-opacity:1;fill-rule:nonzero;stroke:none"
         inkscape:connector-curvature="0" />
      <path
         id="path3017"
         d="m 441.036,483.58687 -30.50788,0 0,-13.7126 31.99607,0 1.41732,-12.89764 -47.58661,0 0,64.48819 14.17322,0 0,-24.98031 29.09055,0"
         style="fill:#ffffff;fill-opacity:1;fill-rule:nonzero;stroke:none"
         inkscape:connector-curvature="0" />
      <path
         id="path3019"
         d="m 623.48087,483.58687 -30.47244,0 0,-13.7126 31.96063,0 1.41733,-12.89764 -47.55118,0 0,64.48819 14.17322,0 0,-24.98031 29.09055,0"
         style="fill:#ffffff;fill-opacity:1;fill-rule:nonzero;stroke:none"
         inkscape:connector-curvature="0" />
    </g>
  </g>
</svg>
